<?xml version="1.0" standalone="no"?><!DOCTYPE svg PUBLIC "-//W3C//DTD SVG 1.1//EN" "http://www.w3.org/Graphics/SVG/1.1/DTD/svg11.dtd"><svg t="1697509445551" class="icon" viewBox="0 0 1024 1024" version="1.1" xmlns="http://www.w3.org/2000/svg" p-id="1786" xmlns:xlink="http://www.w3.org/1999/xlink" width="16" height="16"><path d="M691.2 632.32H537.6v-102.4h153.6c12.8 0 25.6-12.8 25.6-25.6 0-15.36-12.8-25.6-25.6-25.6H573.44l128-128c10.24-10.24 10.24-25.6 0-35.84-10.24-10.24-25.6-10.24-35.84 0L512 468.48l-153.6-153.6c-10.24-10.24-25.6-10.24-35.84 0-10.24 10.24-10.24 25.6 0 35.84l128 128H332.8c-12.8 0-25.6 10.24-25.6 25.6 0 12.8 12.8 25.6 25.6 25.6h153.6v102.4H332.8c-12.8 0-25.6 12.8-25.6 25.6s12.8 25.6 25.6 25.6h153.6V793.6c0 12.8 12.8 25.6 25.6 25.6s25.6-12.8 25.6-25.6V683.52h153.6c12.8 0 25.6-12.8 25.6-25.6s-12.8-25.6-25.6-25.6z" p-id="1787"></path><path d="M373.76 153.6l79.36 79.36C468.48 248.32 486.4 256 506.88 256H921.6v614.4H102.4V153.6h271.36M384 102.4H76.8c-15.36 0-25.6 10.24-25.6 25.6v768c0 15.36 10.24 25.6 25.6 25.6h870.4c15.36 0 25.6-10.24 25.6-25.6V230.4c0-15.36-10.24-25.6-25.6-25.6H506.88c-7.68 0-12.8-2.56-17.92-7.68l-87.04-87.04c-5.12-5.12-10.24-7.68-17.92-7.68z" p-id="1788"></path></svg>