<?xml version="1.0" standalone="no"?><!DOCTYPE svg PUBLIC "-//W3C//DTD SVG 1.1//EN" "http://www.w3.org/Graphics/SVG/1.1/DTD/svg11.dtd"><svg t="1697509384250" class="icon" viewBox="0 0 1024 1024" version="1.1" xmlns="http://www.w3.org/2000/svg" p-id="1636" xmlns:xlink="http://www.w3.org/1999/xlink" width="16" height="16"><path d="M512 256c117.632 0 213.333 95.701 213.333 213.333v149.334a64.057 64.057 0 0 0 12.8 38.4l51.2 68.266H234.667l51.2-68.266a64.057 64.057 0 0 0 12.8-38.4V469.333C298.667 351.701 394.368 256 512 256m0-64c-153.173 0-277.333 124.16-277.333 277.333v149.334l-64 85.333v42.667c0 23.466 19.2 42.666 42.666 42.666h597.334c23.466 0 42.666-19.2 42.666-42.666V704l-64-85.333V469.333C789.333 316.16 665.173 192 512 192z m0 661.333a64 64 0 0 1-64-64h-64c0 70.571 57.43 128 128 128s128-57.429 128-128h-64a64 64 0 0 1-64 64z" p-id="1637"></path><path d="M512 256a42.667 42.667 0 1 1-0.021-85.312A42.667 42.667 0 0 1 512 256h97.621a105.963 105.963 0 0 0 9.046-42.667c0-58.816-47.851-106.666-106.667-106.666s-106.667 47.85-106.667 106.666c0 15.19 3.307 29.568 9.046 42.667H512z" p-id="1638"></path></svg>