<?xml version="1.0" standalone="no"?>
<!DOCTYPE svg PUBLIC "-//W3C//DTD SVG 1.1//EN" "http://www.w3.org/Graphics/SVG/1.1/DTD/svg11.dtd">
<svg t="1697509466439" class="icon" viewBox="0 0 1024 1024" version="1.1"
  xmlns="http://www.w3.org/2000/svg" p-id="2245" xmlns:xlink="http://www.w3.org/1999/xlink"
  width="16" height="16">
  <path
    d="M512 77c-128.3 0-315.8 50.1-388.3 293.7-14.3 48.1-20 95.6-19 141.3-0.9 45.7 4.7 93.3 19 141.4C196.2 896.9 383.7 947 512 947c126.7 0 315.6-50.1 388.2-293.7 14.3-48.1 20-95.7 19.2-141.4 0.8-45.7-4.8-93.2-19.2-141.3C827.7 127.1 638.7 77 512 77z m0.1 66.9c16.4 0.5 61.5 4.2 88.9 26 36.9 29.6 84.7 92.1 85.5 342-0.8 250.1-48.6 312.6-85.5 342.2-27.3 21.8-72.5 25.3-88.9 25.9-16.4-0.5-61.8-4-89.1-25.9-36.9-29.6-84.7-92.1-85.5-342.2 0.8-250 48.7-312.4 85.5-342 27.4-21.9 72.8-25.5 89.1-26z"
    fill="none" p-id="2246"></path>
</svg>