<?xml version="1.0" standalone="no"?><!DOCTYPE svg PUBLIC "-//W3C//DTD SVG 1.1//EN" "http://www.w3.org/Graphics/SVG/1.1/DTD/svg11.dtd"><svg t="1697509492710" class="icon" viewBox="0 0 1024 1024" version="1.1" xmlns="http://www.w3.org/2000/svg" p-id="2861" xmlns:xlink="http://www.w3.org/1999/xlink" width="16" height="16"><path d="M883.8 796.7H139.3c-22.1 0-40 17.9-40 40s17.9 40 40 40h744.5c22.1 0 40-17.9 40-40 0-22-17.9-40-40-40zM129.1 730.7h757.2c18.6 0 33.7-15.1 33.7-33.7V134.9c0-18.6-15.1-33.7-33.7-33.7H129.1c-18.6 0-33.7 15.1-33.7 33.7V697c0.1 18.6 15.1 33.7 33.7 33.7zM346.9 402l-29.7-40.6c-5.5-7.6-6.1-17.7-1.4-25.8l26.3-45.6c4.7-8.1 13.7-12.7 23-11.7l50.1 5.4c10.3 1.1 20-4.5 24.2-14l20.3-46.1c3.8-8.6 12.3-14.1 21.6-14.1H534c9.4 0 17.9 5.5 21.6 14.1l20.3 46.1c4.2 9.4 14 15.1 24.2 14l50.1-5.4c9.3-1 18.4 3.6 23 11.7l26.3 45.6c4.7 8.1 4.1 18.2-1.4 25.8L668.5 402c-6.1 8.3-6.1 19.6 0 28l29.7 40.6c5.5 7.6 6.1 17.7 1.4 25.8L673.3 542c-4.7 8.1-13.7 12.7-23 11.7l-50.1-5.4c-10.3-1.1-20 4.5-24.2 14l-20.3 46.1c-3.8 8.6-12.3 14.1-21.6 14.1h-52.6c-9.4 0-17.9-5.5-21.6-14.1l-20.3-46.1c-4.2-9.4-14-15.1-24.2-14l-50.1 5.4c-9.3 1-18.4-3.6-23-11.7L316 496.4c-4.7-8.1-4.1-18.2 1.4-25.8l29.7-40.6c5.9-8.4 5.9-19.7-0.2-28z" p-id="2862"></path><path d="M507.7 416m-75.5 0a75.5 75.5 0 1 0 151 0 75.5 75.5 0 1 0-151 0Z" p-id="2863"></path></svg>