
<svg width="48px" height="48px" viewBox="0 0 48 48" version="1.1" xmlns="http://www.w3.org/2000/svg" xmlns:xlink="http://www.w3.org/1999/xlink">
  <g id="页面-1" stroke="none" stroke-width="1" fill="none" fill-rule="evenodd">
      <g id="4地址管理-2中转地址" transform="translate(-308, -184)" fill-rule="nonzero">
          <g id="编组" transform="translate(308, 184)">
              <path d="M24,0 C37.25625,0 48,10.74375 48,24 C48,37.25625 37.25625,48 24,48 C10.74375,48 0,37.25625 0,24 C0,10.74375 10.7484375,0 24,0 Z" id="路径" fill="#009864"></path>
              <path d="M38.821875,21.9984375 C38.821875,20.3578125 33.703125,18.99375 26.915625,18.684375 L26.915625,15.2390625 L36.759375,15.2390625 L36.759375,9.70781249 L10.9828125,9.70781249 L10.9828125,15.2390625 L20.8265625,15.2390625 L20.8265625,18.6984375 C14.165625,19.03125 9.17812503,20.38125 9.17812503,22.003125 C9.17812503,23.6203125 14.165625,24.975 20.8265625,25.3078125 L20.8265625,38.2921875 L26.9203125,38.2921875 L26.9203125,25.3125 C33.703125,25.0078125 38.821875,23.6390625 38.821875,21.9984375 L38.821875,21.9984375 Z M24,24.3328125 C17.0296875,24.3328125 10.6546875,22.9875 10.6546875,21.7640625 C10.6546875,20.465625 14.9109375,19.4109375 20.8171875,19.1296875 L20.8171875,23.1890625 L26.9109375,23.1890625 L26.9109375,19.1203125 C32.9578125,19.3828125 37.3453125,20.446875 37.3453125,21.7640625 C37.3453125,22.9640625 30.8953125,24.3328125 24,24.3328125 Z" id="形状" fill="#FFFFFF"></path>
          </g>
      </g>
  </g>
</svg>